HIERARCHY
ROOT Hips
{
  OFFSET 5.72205e-005 65.662 3.42586
  CHANNELS 6 Xposition Yposition Zposition Zrotation Xrotation Yrotation
  JOINT Chest
  {
    OFFSET 0 8.7983 -4.7612
    CHANNELS 6 Xposition Yposition Zposition Zrotation Xrotation Yrotation
    JOINT Chest2
    {
      OFFSET 0 8.0291 0.4195
      CHANNELS 6 Xposition Yposition Zposition Zrotation Xrotation Yrotation
      JOINT Chest3
      {
        OFFSET 0 9.9351 -2.2114
        CHANNELS 6 Xposition Yposition Zposition Zrotation Xrotation Yrotation
        JOINT Neck
        {
          OFFSET 0 22.3885 -0.4656
          CHANNELS 6 Xposition Yposition Zposition Zrotation Xrotation Yrotation
          JOINT Head
          {
            OFFSET -0.0001 12.643 3.4389
            CHANNELS 6 Xposition Yposition Zposition Zrotation Xrotation Yrotation
            End Site
            {
              OFFSET 0.0001 17.6655 0.5274
            }
          }
        }
        JOINT LeftCollar
        {
          OFFSET 2.2603 21.606 7.4023
          CHANNELS 6 Xposition Yposition Zposition Zrotation Xrotation Yrotation
          JOINT LeftShoulder
          {
            OFFSET 13.5163 -1.1332 -5.0146
            CHANNELS 6 Xposition Yposition Zposition Zrotation Xrotation Yrotation
            JOINT LeftElbow
            {
              OFFSET -0.0995 -28.05 -0.2431
              CHANNELS 6 Xposition Yposition Zposition Zrotation Xrotation Yrotation
              JOINT LeftWrist
              {
                OFFSET 0.0679 -23.3996 -0.1402
                CHANNELS 6 Xposition Yposition Zposition Zrotation Xrotation Yrotation
                JOINT LeftFinger1
                {
                  OFFSET 0.7932 -9.069 2.5189
                  CHANNELS 6 Xposition Yposition Zposition Zrotation Xrotation Yrotation
                  JOINT LeftFinger11
                  {
                    OFFSET -0.8272 -3.3923 0.5977
                    CHANNELS 6 Xposition Yposition Zposition Zrotation Xrotation Yrotation
                    JOINT LeftFinger12
                    {
                      OFFSET -0.5649 -2.3158 0.4082
                      CHANNELS 6 Xposition Yposition Zposition Zrotation Xrotation Yrotation
                      End Site
                      {
                        OFFSET -0.4919 -1.6479 0.2673
                      }
                    }
                  }
                }
                JOINT LeftFinger2
                {
                  OFFSET 0.9159 -9.2044 0.2193
                  CHANNELS 6 Xposition Yposition Zposition Zrotation Xrotation Yrotation
                  JOINT LeftFinger21
                  {
                    OFFSET 0.0117 -4.1944 -0.0248
                    CHANNELS 6 Xposition Yposition Zposition Zrotation Xrotation Yrotation
                    JOINT LeftFinger22
                    {
                      OFFSET 0.0071 -2.3249 -0.0142
                      CHANNELS 6 Xposition Yposition Zposition Zrotation Xrotation Yrotation
                      End Site
                      {
                        OFFSET -0.1475 -2.0882 0.0028
                      }
                    }
                  }
                }
                JOINT LeftFinger3
                {
                  OFFSET 0.6113 -8.7231 -2.0637
                  CHANNELS 6 Xposition Yposition Zposition Zrotation Xrotation Yrotation
                  JOINT LeftFinger31
                  {
                    OFFSET -0.1927 -3.8059 -0.2383
                    CHANNELS 6 Xposition Yposition Zposition Zrotation Xrotation Yrotation
                    JOINT LeftFinger32
                    {
                      OFFSET -0.1091 -2.1688 -0.1362
                      CHANNELS 6 Xposition Yposition Zposition Zrotation Xrotation Yrotation
                      End Site
                      {
                        OFFSET -0.2358 -1.9176 -0.0906
                      }
                    }
                  }
                }
                JOINT LeftFinger4
                {
                  OFFSET -0.6151 -8.0947 -3.5641
                  CHANNELS 6 Xposition Yposition Zposition Zrotation Xrotation Yrotation
                  JOINT LeftFinger41
                  {
                    OFFSET -0.4882 -2.341 -0.6462
                    CHANNELS 6 Xposition Yposition Zposition Zrotation Xrotation Yrotation
                    JOINT LeftFinger42
                    {
                      OFFSET -0.3575 -1.7167 -0.4742
                      CHANNELS 6 Xposition Yposition Zposition Zrotation Xrotation Yrotation
                      End Site
                      {
                        OFFSET -0.4187 -1.5237 -0.3496
                      }
                    }
                  }
                }
                JOINT LeftFinger0
                {
                  OFFSET -1.42 -1.8761 1.4223
                  CHANNELS 6 Xposition Yposition Zposition Zrotation Xrotation Yrotation
                  JOINT LeftFinger01
                  {
                    OFFSET -1.1471 -3.4929 2.6334
                    CHANNELS 6 Xposition Yposition Zposition Zrotation Xrotation Yrotation
                    JOINT LeftFinger02
                    {
                      OFFSET -0.823 -2.3 1.6571
                      CHANNELS 6 Xposition Yposition Zposition Zrotation Xrotation Yrotation
                      End Site
                      {
                        OFFSET -0.5822 -1.6914 1.1582
                      }
                    }
                  }
                }
              }
            }
          }
        }
        JOINT RightCollar
        {
          OFFSET -2.2603 21.606 7.4023
          CHANNELS 6 Xposition Yposition Zposition Zrotation Xrotation Yrotation
          JOINT RightShoulder
          {
            OFFSET -13.5187 -1.1334 -5.0155
            CHANNELS 6 Xposition Yposition Zposition Zrotation Xrotation Yrotation
            JOINT RightElbow
            {
              OFFSET 0.0994 -28.0499 -0.2431
              CHANNELS 6 Xposition Yposition Zposition Zrotation Xrotation Yrotation
              JOINT RightWrist
              {
                OFFSET -0.0679 -23.3996 -0.1402
                CHANNELS 6 Xposition Yposition Zposition Zrotation Xrotation Yrotation
                JOINT RightFinger1
                {
                  OFFSET -0.7932 -9.0691 2.5189
                  CHANNELS 6 Xposition Yposition Zposition Zrotation Xrotation Yrotation
                  JOINT RightFinger11
                  {
                    OFFSET 0.8272 -3.3923 0.5977
                    CHANNELS 6 Xposition Yposition Zposition Zrotation Xrotation Yrotation
                    JOINT RightFinger12
                    {
                      OFFSET 0.565 -2.3158 0.4082
                      CHANNELS 6 Xposition Yposition Zposition Zrotation Xrotation Yrotation
                      End Site
                      {
                        OFFSET 0.4919 -1.6479 0.2673
                      }
                    }
                  }
                }
                JOINT RightFinger2
                {
                  OFFSET -0.916 -9.2044 0.2193
                  CHANNELS 6 Xposition Yposition Zposition Zrotation Xrotation Yrotation
                  JOINT RightFinger21
                  {
                    OFFSET -0.0117 -4.1944 -0.0248
                    CHANNELS 6 Xposition Yposition Zposition Zrotation Xrotation Yrotation
                    JOINT RightFinger22
                    {
                      OFFSET -0.0071 -2.3249 -0.0142
                      CHANNELS 6 Xposition Yposition Zposition Zrotation Xrotation Yrotation
                      End Site
                      {
                        OFFSET 0.1475 -2.0882 0.0028
                      }
                    }
                  }
                }
                JOINT RightFinger3
                {
                  OFFSET -0.6113 -8.7231 -2.0637
                  CHANNELS 6 Xposition Yposition Zposition Zrotation Xrotation Yrotation
                  JOINT RightFinger31
                  {
                    OFFSET 0.1927 -3.8059 -0.2383
                    CHANNELS 6 Xposition Yposition Zposition Zrotation Xrotation Yrotation
                    JOINT RightFinger32
                    {
                      OFFSET 0.1091 -2.1688 -0.1362
                      CHANNELS 6 Xposition Yposition Zposition Zrotation Xrotation Yrotation
                      End Site
                      {
                        OFFSET 0.2358 -1.9176 -0.0906
                      }
                    }
                  }
                }
                JOINT RightFinger4
                {
                  OFFSET 0.6151 -8.0947 -3.564
                  CHANNELS 6 Xposition Yposition Zposition Zrotation Xrotation Yrotation
                  JOINT RightFinger41
                  {
                    OFFSET 0.4882 -2.341 -0.6462
                    CHANNELS 6 Xposition Yposition Zposition Zrotation Xrotation Yrotation
                    JOINT RightFinger42
                    {
                      OFFSET 0.3574 -1.7166 -0.4742
                      CHANNELS 6 Xposition Yposition Zposition Zrotation Xrotation Yrotation
                      End Site
                      {
                        OFFSET 0.4187 -1.5237 -0.3496
                      }
                    }
                  }
                }
                JOINT RightFinger0
                {
                  OFFSET 1.4199 -1.8761 1.4221
                  CHANNELS 6 Xposition Yposition Zposition Zrotation Xrotation Yrotation
                  JOINT RightFinger01
                  {
                    OFFSET 1.1472 -3.4929 2.6336
                    CHANNELS 6 Xposition Yposition Zposition Zrotation Xrotation Yrotation
                    JOINT RightFinger02
                    {
                      OFFSET 0.8229 -2.3 1.6571
                      CHANNELS 6 Xposition Yposition Zposition Zrotation Xrotation Yrotation
                      End Site
                      {
                        OFFSET 0.5822 -1.6914 1.1582
                      }
                    }
                  }
                }
              }
            }
          }
        }
      }
    }
  }
  JOINT RightHip
  {
    OFFSET -9.412 3.9771 -0.7758
    CHANNELS 6 Xposition Yposition Zposition Zrotation Xrotation Yrotation
    JOINT RightKnee
    {
      OFFSET -0.7531 -40.938 0
      CHANNELS 6 Xposition Yposition Zposition Zrotation Xrotation Yrotation
      JOINT RightAnkle
      {
        OFFSET 0 -40.1986 0
        CHANNELS 6 Xposition Yposition Zposition Zrotation Xrotation Yrotation
        JOINT RightToe
        {
          OFFSET 0 -4.4182 9.239
          CHANNELS 6 Xposition Yposition Zposition Zrotation Xrotation Yrotation
          End Site
          {
            OFFSET 0 0 6.1981
          }
        }
      }
    }
  }
  JOINT LeftHip
  {
    OFFSET 9.4119 3.9773 -0.7758
    CHANNELS 6 Xposition Yposition Zposition Zrotation Xrotation Yrotation
    JOINT LeftKnee
    {
      OFFSET 0.7532 -40.9383 0
      CHANNELS 6 Xposition Yposition Zposition Zrotation Xrotation Yrotation
      JOINT LeftAnkle
      {
        OFFSET 0 -40.1986 0
        CHANNELS 6 Xposition Yposition Zposition Zrotation Xrotation Yrotation
        JOINT LeftToe
        {
          OFFSET 0 -4.4182 9.239
          CHANNELS 6 Xposition Yposition Zposition Zrotation Xrotation Yrotation
          End Site
          {
            OFFSET 0 0 6.1981
          }
        }
      }
    }
  }
}
MOTION
Frames:	4
Frame Time:	0.0333333
5.72205e-005 65.662 3.42586 0 0 -0 0 8.7983 -4.7612 0 0 -0 0 8.0291 0.4195 0 0 -0 0 9.9351 -2.2114 0 0 -0 0 22.3885 -0.4656 0 0 -0 -0.0001 12.643 3.4389 0 0 -0 2.2603 21.606 7.4023 0 0 -12.5014 13.5163 -1.1332 -5.0146 88.1196 14.2451 10.6914 -0.0995 -28.05 -0.2431 -0.00160068 -0.00239207 0.000740045 0.0679 -23.3996 -0.1402 -8.4365e-005 7.00714e-005 -9.52055e-007 0.7932 -9.069 2.5189 9.93923e-017 -1.98785e-016 -1.59028e-015 -0.8272 -3.3923 0.5977 9.93923e-017 -5.96354e-016 -1.59028e-015 -0.5649 -2.3158 0.4082 -9.93923e-017 -5.96354e-016 -1.59028e-015 0.9159 -9.2044 0.2193 9.93923e-017 -1.98785e-016 -1.59028e-015 0.0117 -4.1944 -0.0248 -0.0128176 0.00232552 8.52707e-005 0.0071 -2.3249 -0.0142 9.93923e-017 5.96354e-016 -0 0.6113 -8.7231 -2.0637 9.93923e-017 -1.98785e-016 -1.59028e-015 -0.1927 -3.8059 -0.2383 -0.0160551 0.00299681 0.000857156 -0.1091 -2.1688 -0.1362 -2.48481e-016 0 3.18055e-015 -0.6151 -8.0947 -3.5641 9.93923e-017 -1.98785e-016 -1.59028e-015 -0.4882 -2.341 -0.6462 -0.0125865 0.0031206 0.00282719 -0.3575 -1.7167 -0.4742 0 1.98785e-016 -0 -1.42 -1.8761 1.4223 9.93923e-017 -1.98785e-016 -1.59028e-015 -1.1471 -3.4929 2.6334 9.93923e-017 -5.96354e-016 -1.59028e-015 -0.823 -2.3 1.6571 -9.93923e-017 -5.96354e-016 -1.59028e-015 -2.2603 21.606 7.4023 -0.865644 0.16582 7.03859 -13.5187 -1.1334 -5.0155 -88.0329 10.2057 -10.5567 0.0994 -28.0499 -0.2431 0.0015593 -0.00248883 -0.000788628 -0.0679 -23.3996 -0.1402 7.87605e-005 4.10553e-005 1.24965e-005 -0.7932 -9.0691 2.5189 -3.97569e-016 -7.95139e-016 3.18055e-015 0.8272 -3.3923 0.5977 -1.98785e-016 -3.97569e-016 3.18055e-015 0.565 -2.3158 0.4082 -1.98785e-016 0 3.18055e-015 -0.916 -9.2044 0.2193 -3.97569e-016 -7.95139e-016 3.18055e-015 -0.0117 -4.1944 -0.0248 0.0129473 0.00231697 -8.70038e-005 -0.0071 -2.3249 -0.0142 9.93923e-017 -7.95139e-016 1.59028e-015 -0.6113 -8.7231 -2.0637 -3.97569e-016 -7.95139e-016 3.18055e-015 0.1927 -3.8059 -0.2383 0.0163314 0.00303369 -0.000872333 0.1091 -2.1688 -0.1362 3.97569e-016 7.95139e-016 -3.18055e-015 0.6151 -8.0947 -3.564 -3.97569e-016 -7.95139e-016 3.18055e-015 0.4882 -2.341 -0.6462 0.0145763 0.00367772 -0.00326275 0.3574 -1.7166 -0.4742 9.93923e-017 -3.97569e-016 -0 1.4199 -1.8761 1.4221 -3.97569e-016 -7.95139e-016 3.18055e-015 1.1472 -3.4929 2.6336 -1.98785e-016 -3.97569e-016 3.18055e-015 0.8229 -2.3 1.6571 -1.98785e-016 0 3.18055e-015 -9.412 3.9771 -0.7758 3.42482 1.32465 -0.0626183 -0.7531 -40.938 0 0.000117508 0.717283 0.000978199 0 -40.1986 0 -3.4257 -2.04197 -0.0604716 8.88178e-016 -4.4182 9.239 6.47761e-025 0 -0 9.4119 3.9773 -0.7758 -3.42483 1.34017 0.0627307 0.7532 -40.9383 -2.22045e-016 -0.000193936 0.682302 -0.0013703 -8.88179e-016 -40.1986 0 3.42574 -2.02253 0.0595886 -8.88178e-016 -4.4182 9.239 -8.45714e-024 0 -7.40531e-025 
0.678589 8.94568 9.42312 2.92625e-007 -81.9931 2.05482e-007 0 8.7983 -4.7612 0.818272 0.818754 -0.167581 0 8.0291 0.4195 1.63919 1.63503 -0.346893 -2.22045e-016 9.9351 -2.2114 1.63919 1.63504 -0.346895 0 22.3885 -0.4656 2.41994e-005 2.9571e-005 -4.29733e-006 -0.0001 12.643 3.4389 3.6451 4.65432 -0.314468 2.2603 21.606 7.4023 -9.70324 5.12887 -30.169 13.5163 -1.1332 -5.0146 166.083 4.1132 44.4706 -0.0995 -28.05 -0.2431 -134.54 -82.4269 -120.149 0.0679 -23.3996 -0.1402 -8.7164 11.0447 35.2183 0.7932 -9.069 2.5189 2.75869e-031 9.93923e-015 -1.59028e-015 -0.8272 -3.3923 0.5977 -5.67837e-006 -1.9145e-005 2.07854e-006 -0.5649 -2.3158 0.4082 -1.01408e-006 -5.84309e-006 1.29675e-006 0.9159 -9.2044 0.2193 2.75869e-031 9.93923e-015 -1.59028e-015 0.0117 -4.1944 -0.0248 -0.0128139 0.00232788 8.41584e-005 0.0071 -2.3249 -0.0142 1.59028e-015 -9.14409e-015 -0 0.6113 -8.7231 -2.0637 2.75869e-031 9.93923e-015 -1.59028e-015 -0.1927 -3.8059 -0.2383 -0.0159697 0.00298961 0.000854686 -0.1091 -2.1688 -0.1362 4.8079e-006 -3.43896e-005 -2.45952e-007 -0.6151 -8.0947 -3.5641 2.75869e-031 9.93923e-015 -1.59028e-015 -0.4882 -2.341 -0.6462 -0.0125975 0.00311089 0.00283089 -0.3575 -1.7167 -0.4742 -2.91389e-006 1.6722e-005 -7.53499e-006 -1.42 -1.8761 1.4223 2.75869e-031 9.93923e-015 -1.59028e-015 -1.1471 -3.4929 2.6334 -5.67837e-006 -1.9145e-005 2.07854e-006 -0.823 -2.3 1.6571 -1.01408e-006 -5.84309e-006 1.29675e-006 -2.2603 21.606 7.4023 4.01205 0.131853 5.0922 -13.5187 -1.1334 -5.0155 -34.1978 7.09726 -40.5055 0.0994 -28.0499 -0.2431 22.8708 4.18654 44.2371 -0.0679 -23.3996 -0.1402 -8.18688 -4.98718 -3.76495 -0.7932 -9.0691 2.5189 -1.59028e-015 5.96354e-016 -4.96962e-017 0.8272 -3.3923 0.5977 5.34496e-033 -1.98785e-016 1.54058e-015 0.565 -2.3158 0.4082 -0 -1.98785e-016 -0 -0.916 -9.2044 0.2193 -1.59028e-015 5.96354e-016 -4.96962e-017 -0.0117 -4.1944 -0.0248 0.0129845 0.00232709 -8.60498e-005 -0.0071 -2.3249 -0.0142 3.18055e-015 0 -1.3418e-015 -0.6113 -8.7231 -2.0637 -1.59028e-015 5.96354e-016 -4.96962e-017 0.1927 -3.8059 -0.2383 0.0162873 0.00302841 -0.000871835 0.1091 -2.1688 -0.1362 -0 0 2.98177e-016 0.6151 -8.0947 -3.564 -1.59028e-015 5.96354e-016 -4.96962e-017 0.4882 -2.341 -0.6462 0.0145635 0.0036788 -0.00325561 0.3574 -1.7166 -0.4742 3.18055e-015 -3.97569e-016 -9.93923e-016 1.4199 -1.8761 1.4221 -1.59028e-015 5.96354e-016 -4.96962e-017 1.1472 -3.4929 2.6336 5.34496e-033 -1.98785e-016 1.54058e-015 0.8229 -2.3 1.6571 -0 -1.98785e-016 -0 -9.412 3.9771 -0.7758 6.87055 -31.0706 -7.3141 -0.7531 -40.938 0 -103.549 78.4069 85.7256 0 -40.1986 0 -3.72959 3.82051 13.5147 8.88179e-016 -4.4182 9.239 3.79827e-007 1.63631e-006 -2.20201e-007 9.4119 3.9773 -0.7758 4.50044 7.2174 20.5943 0.7532 -40.9383 0 -2.38914 12.1689 1.37935 7.10543e-015 -40.1986 -1.06581e-014 11.9803 25.498 -29.4871 0 -4.4182 9.239 -2.68504e-007 5.48216e-006 8.81617e-007 
0.822628 0.0132294 8.66403 -180 -84.5898 -180 1.11022e-016 8.7983 -4.7612 0.954359 0.952977 -0.172536 0 8.0291 0.4195 1.91199 1.90295 -0.361003 -2.22045e-016 9.9351 -2.2114 1.91198 1.90295 -0.361002 -2.22045e-016 22.3885 -0.4656 -4.95373e-005 -4.98472e-005 8.98931e-006 -0.0001 12.643 3.4389 4.24646 5.41591 -0.366353 2.2603 21.606 7.4023 -10.9911 5.86481 -33.0877 13.5163 -1.1332 -5.0146 178.577 1.23089 51.6768 -0.0995 -28.05 -0.2431 140.528 -74.8656 156.716 0.0679 -23.3996 -0.1402 -10.0643 12.8108 40.9828 0.7932 -9.069 2.5189 4.77083e-015 -9.93923e-015 3.18055e-015 -0.8272 -3.3923 0.5977 6.36111e-015 -1.07344e-014 6.36111e-015 -0.5649 -2.3158 0.4082 7.15625e-015 -1.07344e-014 -0 0.9159 -9.2044 0.2193 4.77083e-015 -9.93923e-015 3.18055e-015 0.0117 -4.1944 -0.0248 -0.0128213 0.00233769 7.48194e-005 0.0071 -2.3249 -0.0142 7.95139e-016 3.97569e-016 -0 0.6113 -8.7231 -2.0637 4.77083e-015 -9.93923e-015 3.18055e-015 -0.1927 -3.8059 -0.2383 -0.016003 0.00300173 0.000857033 -0.1091 -2.1688 -0.1362 -1.59028e-015 1.59028e-015 -6.36111e-015 -0.6151 -8.0947 -3.5641 4.77083e-015 -9.93923e-015 3.18055e-015 -0.4882 -2.341 -0.6462 -0.0126365 0.00313189 0.00283005 -0.3575 -1.7167 -0.4742 1.59028e-015 7.95139e-016 -0 -1.42 -1.8761 1.4223 4.77083e-015 -9.93923e-015 3.18055e-015 -1.1471 -3.4929 2.6334 6.36111e-015 -1.07344e-014 6.36111e-015 -0.823 -2.3 1.6571 7.15625e-015 -1.07344e-014 -0 -2.2603 21.606 7.4023 4.80982 0.126254 4.77371 -13.5187 -1.1334 -5.0155 -25.5114 6.12693 -45.0146 0.0994 -28.0499 -0.2431 26.3848 4.7904 52.42 -0.0679 -23.3996 -0.1402 -9.54073 -5.78797 -4.40763 -0.7932 -9.0691 2.5189 -1.14193e-006 1.5087e-007 -4.96779e-006 0.8272 -3.3923 0.5977 1.92454e-006 -1.50283e-006 -2.37336e-006 0.565 -2.3158 0.4082 2.30403e-006 1.19858e-005 -4.71565e-006 -0.916 -9.2044 0.2193 -1.14193e-006 1.5087e-007 -4.96779e-006 -0.0117 -4.1944 -0.0248 0.0129603 0.0023137 -8.88245e-005 -0.0071 -2.3249 -0.0142 -5.45677e-006 1.11863e-005 -4.52602e-006 -0.6113 -8.7231 -2.0637 -1.14193e-006 1.5087e-007 -4.96779e-006 0.1927 -3.8059 -0.2383 0.0163224 0.00302255 -0.000878894 0.1091 -2.1688 -0.1362 -4.40955e-007 2.16998e-005 -1.05251e-005 0.6151 -8.0947 -3.564 -1.14193e-006 1.5087e-007 -4.96779e-006 0.4882 -2.341 -0.6462 0.0145724 0.003672 -0.00326213 0.3574 -1.7166 -0.4742 2.30149e-006 -3.66979e-006 -1.14688e-006 1.4199 -1.8761 1.4221 -1.14193e-006 1.5087e-007 -4.96779e-006 1.1472 -3.4929 2.6336 1.92454e-006 -1.50283e-006 -2.37336e-006 0.8229 -2.3 1.6571 2.30403e-006 1.19858e-005 -4.71565e-006 -9.412 3.9771 -0.7758 7.08202 -35.5548 -9.34102 -0.7531 -40.938 5.32907e-015 -153.088 71.2479 130.642 8.88179e-016 -40.1986 0 -4.00751 4.54604 15.7176 0 -4.4182 9.239 -4.96962e-017 -7.25803e-012 -0 9.4119 3.9773 -0.7758 5.63567 7.69016 23.9478 0.7532 -40.9383 0 -2.80842 14.5516 1.77992 0 -40.1986 1.77636e-015 16.4525 27.6374 -35.5445 0 -4.4182 9.239 -8.3627e-007 2.41664e-006 -8.42874e-007 
0.784364 2.29691 8.90477 -180 -87.9973 -180 0 8.7983 -4.7612 0.919801 0.918885 -0.171881 0 8.0291 0.4195 1.8427 1.83487 -0.358563 2.22045e-016 9.9351 -2.2114 1.8427 1.83489 -0.358562 -4.44089e-016 22.3885 -0.4656 -1.87443e-005 -1.44798e-005 3.46086e-006 -0.0001 12.643 3.4389 4.09361 5.22246 -0.35316 2.2603 21.606 7.4023 -10.6716 5.68206 -32.3455 13.5163 -1.1332 -5.0146 175.404 1.97 49.79 -0.0995 -28.05 -0.2431 152.021 -78.0927 167.777 0.0679 -23.3996 -0.1402 -9.72475 12.3631 39.5193 0.7932 -9.069 2.5189 4.59212e-006 -1.42573e-006 -3.44115e-006 -0.8272 -3.3923 0.5977 6.36111e-015 -1.47101e-014 1.27222e-014 -0.5649 -2.3158 0.4082 6.36111e-015 -1.94809e-014 6.36111e-015 0.9159 -9.2044 0.2193 4.59212e-006 -1.42573e-006 -3.44115e-006 0.0117 -4.1944 -0.0248 -0.0128832 0.00235103 8.92219e-005 0.0071 -2.3249 -0.0142 0 2.78299e-015 -0 0.6113 -8.7231 -2.0637 4.59212e-006 -1.42573e-006 -3.44115e-006 -0.1927 -3.8059 -0.2383 -0.0160702 0.00300521 0.000860085 -0.1091 -2.1688 -0.1362 -4.55048e-007 8.9411e-006 1.522e-006 -0.6151 -8.0947 -3.5641 4.59212e-006 -1.42573e-006 -3.44115e-006 -0.4882 -2.341 -0.6462 -0.0125055 0.00310414 0.00280859 -0.3575 -1.7167 -0.4742 7.95139e-016 -3.97569e-016 6.36111e-015 -1.42 -1.8761 1.4223 4.59212e-006 -1.42573e-006 -3.44115e-006 -1.1471 -3.4929 2.6334 6.36111e-015 -1.47101e-014 1.27222e-014 -0.823 -2.3 1.6571 6.36111e-015 -1.94809e-014 6.36111e-015 -2.2603 21.606 7.4023 4.60723 0.127707 4.8546 -13.5187 -1.1334 -5.0155 -27.7138 6.38143 -43.8832 0.0994 -28.0499 -0.2431 25.5006 4.63953 50.3125 -0.0679 -23.3996 -0.1402 -9.1964 -5.58514 -4.2433 -0.7932 -9.0691 2.5189 3.31043e-032 -1.59028e-015 1.19271e-015 0.8272 -3.3923 0.5977 -5.74797e-006 4.12161e-007 -7.85324e-006 0.565 -2.3158 0.4082 3.00235e-006 -2.30654e-007 5.41804e-006 -0.916 -9.2044 0.2193 3.31043e-032 -1.59028e-015 1.19271e-015 -0.0117 -4.1944 -0.0248 0.0129321 0.00231219 -8.27525e-005 -0.0071 -2.3249 -0.0142 -1.59028e-015 0 -1.59028e-015 -0.6113 -8.7231 -2.0637 3.31043e-032 -1.59028e-015 1.19271e-015 0.1927 -3.8059 -0.2383 0.0163476 0.00303957 -0.000869615 0.1091 -2.1688 -0.1362 3.70008e-006 -4.78237e-007 -4.72153e-006 0.6151 -8.0947 -3.564 3.31043e-032 -1.59028e-015 1.19271e-015 0.4882 -2.341 -0.6462 0.0146098 0.00368412 -0.00326586 0.3574 -1.7166 -0.4742 -5.00754e-006 -9.24004e-007 1.41001e-006 1.4199 -1.8761 1.4221 3.31043e-032 -1.59028e-015 1.19271e-015 1.1472 -3.4929 2.6336 -5.74797e-006 4.12161e-007 -7.85324e-006 0.8229 -2.3 1.6571 3.00235e-006 -2.30654e-007 5.41804e-006 -9.412 3.9771 -0.7758 7.01775 -34.4421 -8.78586 -0.7531 -40.938 0 -144.746 73.8202 123.538 -1.77636e-015 -40.1986 0 -3.95236 4.38644 15.1672 8.88179e-016 -4.4182 9.239 5.16822e-007 4.86101e-006 1.16889e-007 9.4119 3.9773 -0.7758 5.29053 7.67333 23.1037 0.7532 -40.9383 0 -2.69756 13.6461 1.62512 0 -40.1986 0 14.8368 26.631 -33.8112 0 -4.4182 9.239 -4.04262e-007 2.48659e-006 -7.21111e-008 
